Coordinates
version=1
nRows=41
nColumns=38
inDegrees=no

Units are S.I. units (second, meters, Newtons, ...)
If the header above contains a line with 'inDegrees', this indicates whether rotational values are in degrees (yes) or radians (no).

endheader
time	pelvis_tilt	pelvis_list	pelvis_rotation	pelvis_tx	pelvis_ty	pelvis_tz	hip_flexion_r	hip_adduction_r	hip_rotation_r	knee_angle_r	ankle_angle_r	subtalar_angle_r	mtp_angle_r	hip_flexion_l	hip_adduction_l	hip_rotation_l	knee_angle_l	ankle_angle_l	subtalar_angle_l	mtp_angle_l	lumbar_extension	lumbar_bending	lumbar_rotation	arm_flex_r	arm_add_r	arm_rot_r	elbow_flex_r	pro_sup_r	wrist_flex_r	wrist_dev_r	arm_flex_l	arm_add_l	arm_rot_l	elbow_flex_l	pro_sup_l	wrist_flex_l	wrist_dev_l
40	0.251938	1.36403	1.43327	0.692259	0.176769	1.03716	0.429792	-0.00516487	0.00141828	0.385817	-0.272724	0	0	0.357733	-0.135314	-0.116309	0.437993	-0.252377	0	0	-0.274367	0.0560348	-0.0672398	0.494808	-0.510234	1.20774	0.645787	0.536379	0	0	0.116196	-0.327229	0.228459	0.562396	1.14301	0	0
40.01	0.253603	1.35843	1.43225	0.692635	0.175017	1.03586	0.442917	-0.00448408	0.000677796	0.396067	-0.267859	0	0	0.370738	-0.136555	-0.111188	0.446774	-0.247952	0	0	-0.277445	0.0582705	-0.0743578	0.513573	-0.50667	1.2454	0.641485	0.492468	0	0	0.113021	-0.328652	0.218097	0.5677	1.14635	0	0
40.02	0.254142	1.35225	1.43206	0.69304	0.17321	1.03446	0.456885	-0.00390895	0.000308963	0.406314	-0.265712	0	0	0.384612	-0.13816	-0.107476	0.455891	-0.245466	0	0	-0.280917	0.0588002	-0.0744816	0.517199	-0.505629	1.24479	0.639584	0.490098	0	0	0.116787	-0.330496	0.220829	0.570125	1.14397	0	0
40.03	0.255379	1.34637	1.43104	0.693478	0.171383	1.03294	0.471398	-0.00333793	-0.000533024	0.418167	-0.263286	0	0	0.399164	-0.140179	-0.104426	0.467266	-0.242266	0	0	-0.284826	0.0593519	-0.0744597	0.521247	-0.504518	1.24531	0.637541	0.488721	0	0	0.120551	-0.332381	0.223516	0.572691	1.14183	0	0
40.04	0.257509	1.34043	1.42909	0.69394	0.169465	1.03127	0.486568	-0.00252274	-0.00143218	0.431029	-0.260691	0	0	0.414981	-0.1428	-0.102065	0.48105	-0.238507	0	0	-0.289034	0.0601517	-0.0742073	0.525768	-0.503719	1.24695	0.635872	0.487893	0	0	0.124525	-0.33418	0.226116	0.575389	1.13979	0	0
40.05	0.259891	1.33423	1.42681	0.69443	0.167474	1.02944	0.502637	-0.00147068	-0.00207873	0.444864	-0.257889	0	0	0.431986	-0.145921	-0.100429	0.496612	-0.234358	0	0	-0.293329	0.0610509	-0.0736601	0.530312	-0.50318	1.24879	0.634765	0.486465	0	0	0.128625	-0.335751	0.22814	0.578277	1.13754	0	0
40.06	0.262278	1.328	1.42428	0.694973	0.165444	1.02746	0.519014	-7.93046e-05	-0.00225908	0.459	-0.255009	0	0	0.449856	-0.149436	-0.099451	0.513999	-0.229948	0	0	-0.297727	0.0618484	-0.0729215	0.534941	-0.502389	1.24997	0.633174	0.48376	0	0	0.132673	-0.337256	0.229734	0.581213	1.1355	0	0
40.07	0.265006	1.3216	1.42118	0.695548	0.16338	1.02528	0.536164	0.0016679	-0.00214329	0.474117	-0.251601	0	0	0.469304	-0.15369	-0.0997418	0.534533	-0.224752	0	0	-0.302215	0.0627594	-0.0721221	0.539528	-0.501759	1.25025	0.632078	0.47915	0	0	0.136358	-0.338713	0.230507	0.584592	1.13346	0	0
40.08	0.268876	1.31621	1.41674	0.696132	0.161299	1.02301	0.552752	0.00368976	-0.00154886	0.490157	-0.248251	0	0	0.489099	-0.159247	-0.102957	0.558291	-0.219988	0	0	-0.307763	0.0637999	-0.0711479	0.544835	-0.500965	1.25207	0.630553	0.475597	0	0	0.140226	-0.339866	0.230588	0.587615	1.13156	0	0
40.09	0.289078	1.31221	1.39196	0.696945	0.159857	1.01982	0.56735	0.011611	-7.32797e-07	0.507504	-0.241189	0	0	0.530763	-0.195916	-0.173323	0.642579	-0.215635	0	0	-0.311908	0.0687295	-0.0664562	0.550185	-0.502377	1.2583	0.631064	0.47377	0	0	0.139089	-0.339634	0.228322	0.592757	1.12923	0	0
40.1	0.30221	1.30962	1.37465	0.697655	0.158397	1.01694	0.580731	0.0171197	0.00100371	0.525027	-0.235021	0	0	0.560098	-0.230222	-0.234807	0.705179	-0.216288	0	0	-0.318973	0.0711822	-0.0616018	0.553449	-0.502925	1.25626	0.630369	0.476428	0	0	0.14013	-0.339385	0.226186	0.597262	1.12791	0	0
40.11	0.302019	1.30568	1.37488	0.698207	0.156084	1.0145	0.596602	0.0178186	0.00166547	0.541776	-0.236327	0	0	0.575078	-0.232533	-0.230758	0.720051	-0.214321	0	0	-0.326915	0.0713357	-0.0624341	0.563793	-0.500651	1.26986	0.626693	0.461126	0	0	0.144842	-0.34124	0.227521	0.599428	1.12265	0	0
40.12	0.299389	1.2997	1.37767	0.698788	0.153769	1.01166	0.615391	0.0182581	0.00212333	0.560063	-0.231188	0	0	0.593083	-0.234517	-0.226219	0.736349	-0.209955	0	0	-0.333447	0.0704375	-0.0622374	0.568644	-0.497931	1.26823	0.622628	0.456958	0	0	0.1497	-0.342264	0.225846	0.602058	1.12005	0	0
40.13	0.296399	1.29356	1.38095	0.699366	0.151409	1.00867	0.633522	0.0184238	0.00188438	0.576596	-0.226118	0	0	0.611715	-0.236363	-0.221599	0.753079	-0.205707	0	0	-0.34019	0.0692943	-0.0616666	0.572429	-0.495235	1.26335	0.618424	0.455023	0	0	0.155326	-0.342948	0.224171	0.604044	1.1178	0	0
40.14	0.29445	1.28738	1.38341	0.699959	0.149029	1.00553	0.651374	0.0188305	0.00133076	0.592585	-0.220915	0	0	0.630858	-0.237801	-0.215243	0.770093	-0.201156	0	0	-0.347175	0.0683802	-0.0607188	0.575572	-0.492608	1.2564	0.614025	0.455065	0	0	0.161613	-0.343335	0.222809	0.60536	1.11604	0	0
40.15	0.293449	1.2813	1.38512	0.700556	0.146671	1.00224	0.669083	0.0194254	0.00072284	0.608697	-0.215963	0	0	0.650118	-0.238766	-0.207355	0.786978	-0.196601	0	0	-0.354377	0.067745	-0.059548	0.578504	-0.490069	1.24912	0.609451	0.456276	0	0	0.168443	-0.343413	0.221839	0.605872	1.11497	0	0
40.16	0.29139	1.2746	1.38799	0.70113	0.144342	0.998765	0.687486	0.0197337	0.000463103	0.624937	-0.210156	0	0	0.669922	-0.239568	-0.200064	0.803414	-0.191931	0	0	-0.360953	0.0667957	-0.0582115	0.580262	-0.487153	1.23964	0.604439	0.457832	0	0	0.175749	-0.343046	0.220906	0.605355	1.11557	0	0
40.17	0.289608	1.26781	1.39064	0.701707	0.142048	0.995152	0.705924	0.0202873	0.000629163	0.641196	-0.203807	0	0	0.689749	-0.239995	-0.191943	0.819623	-0.186893	0	0	-0.367378	0.0658544	-0.0565887	0.581415	-0.484082	1.22874	0.598932	0.460069	0	0	0.183566	-0.342348	0.220114	0.603886	1.11793	0	0
40.18	0.29014	1.26214	1.39203	0.702135	0.139684	0.991586	0.722726	0.0206939	-3.05818e-06	0.656791	-0.198059	0	0	0.7087	-0.239264	-0.181021	0.835509	-0.181937	0	0	-0.375139	0.0659258	-0.055609	0.5833	-0.481128	1.21886	0.593463	0.460451	0	0	0.192108	-0.341605	0.220307	0.601926	1.12123	0	0
40.19	0.293661	1.25719	1.39261	0.70226	0.137084	0.988039	0.738086	0.0204693	-0.00224478	0.671354	-0.191699	0	0	0.728089	-0.236373	-0.165157	0.851633	-0.176479	0	0	-0.38373	0.0677094	-0.0558859	0.586024	-0.4785	1.21004	0.587893	0.460381	0	0	0.201734	-0.340489	0.221177	0.599303	1.12557	0	0
40.2	0.296856	1.25196	1.39328	0.702505	0.134514	0.984398	0.753732	0.0207718	-0.00359879	0.685712	-0.186087	0	0	0.747653	-0.233248	-0.148992	0.86753	-0.171622	0	0	-0.391842	0.0692386	-0.055911	0.589197	-0.475404	1.20358	0.581506	0.460018	0	0	0.211333	-0.339569	0.222619	0.596424	1.12982	0	0
40.21	0.297093	1.24388	1.39567	0.702942	0.13213	0.980332	0.772932	0.0217907	-0.0034073	0.701022	-0.178542	0	0	0.769713	-0.230008	-0.13297	0.883458	-0.165113	0	0	-0.396367	0.0695869	-0.0546974	0.590058	-0.471701	1.19366	0.573919	0.460136	0	0	0.220238	-0.337823	0.222741	0.59239	1.13603	0	0
40.22	0.308839	1.23256	1.38315	0.702575	0.129162	0.977553	0.795665	0.00376946	-0.0177025	0.767852	-0.14271	0	0	0.79241	-0.228074	-0.111975	0.893594	-0.159761	0	0	-0.406245	0.0746086	-0.0470829	0.59424	-0.472749	1.17685	0.569334	0.468744	0	0	0.233873	-0.328836	0.213329	0.586425	1.14998	0	0
40.23	0.294353	1.22629	1.40355	0.703708	0.127383	0.971996	0.81284	0.0233573	-0.00121637	0.731426	-0.152055	0	0	0.813584	-0.218992	-0.0969853	0.912176	-0.15215	0	0	-0.404176	0.0688097	-0.0508568	0.588555	-0.464793	1.16705	0.559311	0.472188	0	0	0.238622	-0.33154	0.216501	0.583447	1.15666	0	0
40.24	0.292865	1.21793	1.40769	0.704031	0.124956	0.96784	0.832232	0.0242449	0.000605621	0.745736	-0.152751	0	0	0.834627	-0.212145	-0.078677	0.925982	-0.145131	0	0	-0.408515	0.0684999	-0.0495188	0.589162	-0.460997	1.15805	0.551737	0.475634	0	0	0.247695	-0.329674	0.217422	0.579832	1.1617	0	0
40.25	0.29135	1.20939	1.41159	0.704407	0.12257	0.963578	0.852015	0.0256706	0.00289674	0.760537	-0.148813	0	0	0.855867	-0.205491	-0.0615208	0.94012	-0.138377	0	0	-0.412403	0.067962	-0.0475414	0.589354	-0.457646	1.14891	0.544676	0.480432	0	0	0.256818	-0.327362	0.217659	0.576043	1.16725	0	0
40.26	0.289658	1.20079	1.41533	0.704862	0.120225	0.959212	0.871949	0.0275636	0.0056302	0.775519	-0.142434	0	0	0.877034	-0.199306	-0.0460191	0.954326	-0.131778	0	0	-0.415901	0.0670452	-0.0450329	0.589277	-0.454295	1.14004	0.537568	0.487361	0	0	0.265861	-0.324932	0.217782	0.57225	1.1734	0	0
40.27	0.287655	1.19193	1.41897	0.70539	0.117931	0.954731	0.891943	0.0299616	0.00885461	0.790261	-0.134015	0	0	0.898166	-0.193401	-0.0317199	0.968368	-0.124912	0	0	-0.418965	0.0656461	-0.0417974	0.587935	-0.450925	1.12849	0.53096	0.495226	0	0	0.274827	-0.32226	0.217394	0.568662	1.18055	0	0
40.28	0.286076	1.18301	1.42163	0.706006	0.115692	0.950165	0.911559	0.033096	0.0122761	0.804454	-0.124151	0	0	0.919525	-0.188059	-0.0184857	0.98315	-0.117818	0	0	-0.422116	0.0642922	-0.0382525	0.586167	-0.447349	1.11471	0.524998	0.50249	0	0	0.283067	-0.319624	0.215983	0.565936	1.18782	0	0
40.29	0.285527	1.17478	1.42289	0.706713	0.113496	0.945655	0.930064	0.0370069	0.0157115	0.818081	-0.114362	0	0	0.940313	-0.184549	-0.00829314	0.998559	-0.111565	0	0	-0.426151	0.0629812	-0.0342252	0.58493	-0.443745	1.10165	0.519197	0.509337	0	0	0.291125	-0.317255	0.214626	0.564167	1.19397	0	0
40.3	0.28469	1.16689	1.42414	0.707493	0.111326	0.941166	0.948184	0.04128	0.0195705	0.831577	-0.104659	0	0	0.960468	-0.18203	6.73364e-05	1.01393	-0.105624	0	0	-0.43056	0.0612601	-0.0298195	0.58368	-0.44026	1.08917	0.514092	0.515597	0	0	0.299286	-0.315134	0.213739	0.562982	1.19892	0	0
40.31	0.282669	1.15927	1.42629	0.708301	0.109177	0.936686	0.96623	0.0456185	0.0242402	0.845229	-0.0951171	0	0	0.979911	-0.179254	0.00812015	1.02909	-0.0995834	0	0	-0.435187	0.0589365	-0.0254576	0.582842	-0.436962	1.07812	0.509499	0.523282	0	0	0.307505	-0.313407	0.213867	0.562089	1.203	0	0
40.32	0.280026	1.15207	1.42877	0.709145	0.107084	0.932242	0.984015	0.0502058	0.0295678	0.859079	-0.0859049	0	0	0.998739	-0.176168	0.0161089	1.04444	-0.0933356	0	0	-0.440214	0.0561882	-0.0210249	0.582285	-0.433827	1.06716	0.505253	0.532283	0	0	0.315833	-0.3121	0.21529	0.561219	1.20657	0	0
40.33	0.277245	1.1452	1.4312	0.71004	0.105053	0.927843	1.00148	0.0552077	0.0355795	0.873056	-0.0770308	0	0	1.01732	-0.173557	0.0230722	1.06031	-0.0873551	0	0	-0.445591	0.0531706	-0.0164251	0.581348	-0.430632	1.05404	0.501442	0.540455	0	0	0.324452	-0.311044	0.217779	0.560028	1.20988	0	0
40.34	0.274591	1.1385	1.43335	0.710944	0.103068	0.923477	1.01831	0.0608443	0.0426324	0.886378	-0.0681951	0	0	1.03576	-0.171232	0.0295765	1.0764	-0.0817405	0	0	-0.451062	0.0500818	-0.0115525	0.580329	-0.427822	1.04105	0.49846	0.550418	0	0	0.333399	-0.309983	0.221066	0.558463	1.2134	0	0
40.35	0.272351	1.13224	1.43523	0.711799	0.101169	0.919171	1.03451	0.0664241	0.0497661	0.899719	-0.0597291	0	0	1.05353	-0.169136	0.0356946	1.09225	-0.0764589	0	0	-0.456804	0.0471294	-0.0066113	0.578955	-0.425151	1.02721	0.496066	0.560184	0	0	0.342536	-0.308774	0.224711	0.556535	1.21694	0	0
40.36	0.270764	1.12667	1.43696	0.712555	0.0993845	0.914952	1.05003	0.071153	0.0559239	0.913527	-0.0515117	0	0	1.07018	-0.16813	0.039597	1.1074	-0.0715551	0	0	-0.462967	0.0445879	-0.0020641	0.577642	-0.422572	1.0132	0.493923	0.570246	0	0	0.351571	-0.30742	0.228253	0.554275	1.22008	0	0
40.37	0.269912	1.12175	1.43857	0.71315	0.0976909	0.910783	1.06501	0.0747376	0.0607022	0.927929	-0.0433611	0	0	1.08606	-0.167553	0.042595	1.12245	-0.066754	0	0	-0.469318	0.0427428	0.00199562	0.576316	-0.42047	0.999304	0.492476	0.580651	0	0	0.360311	-0.305668	0.231385	0.55179	1.22237	0	0
40.38	0.266645	1.1135	1.44313	0.713675	0.0961998	0.906287	1.0835	0.0767621	0.0650332	0.942791	-0.0310238	0	0	1.10486	-0.166145	0.0449443	1.13632	-0.0617346	0	0	-0.473259	0.0365095	0.0181393	0.543227	-0.417054	0.873553	0.498147	0.695377	0	0	0.381364	-0.300874	0.258469	0.542495	1.21497	0	0
40.39	0.268347	1.1102	1.44344	0.713829	0.0945378	0.90215	1.09675	0.07822	0.0668237	0.957629	-0.0204637	0	0	1.11921	-0.165126	0.0487893	1.15137	-0.0559847	0	0	-0.479416	0.0392483	0.0137057	0.557445	-0.416065	0.914165	0.495066	0.659231	0	0	0.380488	-0.297137	0.234797	0.54346	1.23591	0	0
40.4	0.269319	1.10717	1.44499	0.713953	0.0929898	0.898059	1.10947	0.0783875	0.0682784	0.971772	-0.0206161	0	0	1.13288	-0.163549	0.0524036	1.16529	-0.0534393	0	0	-0.485856	0.0397301	0.016685	0.554007	-0.414727	0.893598	0.49656	0.681872	0	0	0.389074	-0.297229	0.250197	0.541426	1.22361	0	0
